<?xml version="1.0" standalone="no"?><svg xmlns="http://www.w3.org/2000/svg" viewBox="0 0 1440 320"><path fill="#0099ff" fill-opacity="1" d="M0,64L8,85.3C16,107,32,149,48,176C64,203,80,213,96,186.7C112,160,128,96,144,101.3C160,107,176,181,192,202.7C208,224,224,192,240,176C256,160,272,160,288,165.3C304,171,320,181,336,202.7C352,224,368,256,384,277.3C400,299,416,309,432,277.3C448,245,464,171,480,154.7C496,139,512,181,528,202.7C544,224,560,224,576,208C592,192,608,160,624,128C640,96,656,64,672,69.3C688,75,704,117,720,154.7C736,192,752,224,768,202.7C784,181,800,107,816,96C832,85,848,139,864,138.7C880,139,896,85,912,85.3C928,85,944,139,960,144C976,149,992,107,1008,117.3C1024,128,1040,192,1056,229.3C1072,267,1088,277,1104,288C1120,299,1136,309,1152,309.3C1168,309,1184,299,1200,277.3C1216,256,1232,224,1248,218.7C1264,213,1280,235,1296,256C1312,277,1328,299,1344,288C1360,277,1376,235,1392,229.3C1408,224,1424,256,1432,272L1440,288L1440,320L1432,320C1424,320,1408,320,1392,320C1376,320,1360,320,1344,320C1328,320,1312,320,1296,320C1280,320,1264,320,1248,320C1232,320,1216,320,1200,320C1184,320,1168,320,1152,320C1136,320,1120,320,1104,320C1088,320,1072,320,1056,320C1040,320,1024,320,1008,320C992,320,976,320,960,320C944,320,928,320,912,320C896,320,880,320,864,320C848,320,832,320,816,320C800,320,784,320,768,320C752,320,736,320,720,320C704,320,688,320,672,320C656,320,640,320,624,320C608,320,592,320,576,320C560,320,544,320,528,320C512,320,496,320,480,320C464,320,448,320,432,320C416,320,400,320,384,320C368,320,352,320,336,320C320,320,304,320,288,320C272,320,256,320,240,320C224,320,208,320,192,320C176,320,160,320,144,320C128,320,112,320,96,320C80,320,64,320,48,320C32,320,16,320,8,320L0,320Z"></path></svg>